<?xml version="1.0" encoding="UTF-8"?>
<svg width="453px" height="621px" viewBox="0 0 453 621" version="1.1" xmlns="http://www.w3.org/2000/svg" xmlns:xlink="http://www.w3.org/1999/xlink">
    <!-- Generator: Sketch 63.1 (92452) - https://sketch.com -->
    <title>hexagon (2)</title>
    <desc>Created with Sketch.</desc>
    <defs>
        <linearGradient x1="44.8152721%" y1="-20.7824921%" x2="44.8152721%" y2="70.8792965%" id="linearGradient-1">
            <stop stop-color="#AF238F" offset="0%"/>
            <stop stop-color="#8924A1" offset="0%"/>
            <stop stop-color="#8724A2" offset="0%"/>
            <stop stop-color="#6F24AF" offset="72.3052154%"/>
            <stop stop-color="#5225BD" offset="100%"/>
        </linearGradient>
    </defs>
    <g id="Page-1" stroke="none" stroke-width="1" fill="none" fill-rule="evenodd">
        <g id="hexagon-(2)" fill="url(#linearGradient-1)" fill-rule="nonzero">
            <path d="M309,621 C388.529004,621 453,556.529004 453,477 C453,397.470996 388.529004,333 309,333 C229.470996,333 165,397.470996 165,477 C165,556.529004 229.470996,621 309,621 Z M337.333333,95 C348.626347,95 357.813333,104.186987 357.813333,115.48 C357.813333,126.773013 348.626347,135.96 337.333333,135.96 C326.04032,135.96 316.853333,126.773013 316.853333,115.48 C316.853333,104.186987 326.04032,95 337.333333,95 Z M369.698333,57.12 L372.555333,57.12 L372.555333,59.97 C372.555333,64.112 375.911333,67.47 380.052333,67.47 C384.193333,67.47 387.549333,64.112 387.549333,59.97 L387.549333,57.12 L390.406333,57.12 C394.546333,57.12 397.903333,53.762 397.903333,49.62 C397.903333,45.478 394.547333,42.12 390.406333,42.12 L387.549333,42.12 L387.549333,39.271 C387.549333,35.129 384.193333,31.771 380.052333,31.771 C375.911333,31.771 372.555333,35.129 372.555333,39.271 L372.555333,42.12 L369.698333,42.12 C365.558333,42.12 362.201333,45.478 362.201333,49.62 C362.201333,53.762 365.558333,57.12 369.698333,57.12 Z M183.496,109 C190.445,109 197.211,110.282 203.605,112.812 L203.605,112.812 L343.837,168.262 C368.018,177.827 367.978,210.112 343.837,219.656 L343.837,219.656 L290.749,240.649 L290.749,291.17 C290.749,294.592 290.264,297.941 289.378,301.15 C330.922,332.089 356.765,378.979 360.54,430.696 C360.84,434.826 357.736,438.42 353.605,438.722 C353.419,438.735 353.234,438.742 353.051,438.742 C349.156,438.742 345.866,435.733 345.578,431.788 C342.184,385.291 319.295,343.054 282.442,314.718 C275.801,323.015 267.945,326.367 254.078,331.446 C306.415,364.526 329.552,429.85 308.017,488.803 C304.065,499.623 295.361,505.829 284.138,505.829 C270.836,505.829 257.498,496.995 257.498,479.694 L257.498,479.694 L257.498,387.45 C257.498,374.256 241.572,367.487 232.084,376.672 L232.084,376.672 L231.741,379.289 C231.246,383.064 228.022,385.814 224.314,385.814 C219.809,385.814 216.359,381.9 216.856,377.476 C167.815,352.602 109.497,388.467 109.497,443.499 C109.497,500.37 171.342,535.97 220.398,507.593 L220.398,507.593 L220.286,506.385 C219.904,502.26 222.939,498.608 227.063,498.227 C231.177,497.83 234.839,500.879 235.221,505.004 L235.221,505.004 L235.606,509.169 C245.737,525.872 263.698,535.797 283.974,535.797 C302.736,535.797 326.307,526.157 336.193,499.097 C340.748,486.626 343.756,473.613 345.133,460.421 C345.563,456.301 349.235,453.297 353.371,453.74 C357.491,454.169 360.483,457.858 360.052,461.977 C358.547,476.395 355.26,490.616 350.282,504.244 C339.79,532.959 314.382,550.797 283.973,550.797 C260.731,550.797 239.142,539.813 225.941,521.695 C167.008,553.822 94.496,510.958 94.496,443.499 C94.496,377.362 164.583,334.136 223.652,364.103 C243.034,348.401 272.496,362.149 272.496,387.45 L272.496,387.45 L272.496,479.694 C272.496,487.304 277.776,490.829 284.136,490.829 C290.562,490.829 292.8,486.735 293.925,483.656 C314.71,426.754 288.446,363.664 234.238,337.576 C200.676,346.137 166.279,346.126 132.75,337.573 C92.12,357.133 65.996,398.42 65.996,443.5 C65.996,508.29 118.706,561 183.496,561 C193.066,561 203.015,559.803 212.471,557.407 C228.549,553.335 244.849,563.047 248.922,579.118 C252.92,594.891 243.45,611.452 227.212,615.568 C212.99,619.173 198.282,621 183.496,621 C85.622,621 5.996,541.374 5.996,443.5 C5.996,387.448 32.665,334.663 77.615,301.145 C76.73,297.937 76.246,294.59 76.246,291.169 L76.246,291.169 L76.246,240.65 C63.502,235.61 49.693,230.15 35.044,224.357 L35.044,224.357 L35.044,249.688 C46.572,252.962 55.044,263.577 55.044,276.14 L55.044,276.14 L55.044,289.474 C55.044,304.637 42.707,316.974 27.544,316.974 C12.381,316.974 0.044,304.637 0.044,289.474 L0.044,289.474 L0.044,276.14 C0.044,263.578 8.516,252.962 20.044,249.688 L20.044,249.688 L20.044,218.208 C-1.083,207.092 0.213,177.336 23.156,168.263 L23.156,168.263 L29.082,165.92 C32.931,164.402 37.291,166.286 38.814,170.137 C40.337,173.989 38.449,178.347 34.597,179.869 L34.597,179.869 L28.671,182.212 C17.133,186.773 17.139,201.147 28.671,205.707 C108.247,237.175 166.173,260.08 168.902,261.159 C178.231,264.847 188.78,264.84 198.088,261.159 L198.088,261.159 L338.319,205.707 C349.859,201.145 349.852,186.773 338.318,182.212 L338.318,182.212 L198.088,126.761 C193.456,124.929 188.547,124 183.495,124 C178.586,124 173.404,124.981 168.903,126.761 L168.903,126.761 L62.494,168.837 C58.644,170.358 54.285,168.473 52.762,164.62 C51.239,160.769 53.127,156.411 56.979,154.888 L56.979,154.888 L163.388,112.812 C169.692,110.318 176.645,109 183.496,109 Z M84.558,314.723 C44.625,345.479 20.997,393.04 20.997,443.5 C20.997,533.103 93.894,606 183.497,606 C197.042,606 210.509,604.327 223.526,601.028 C231.677,598.961 236.373,590.659 234.381,582.803 C232.348,574.785 224.175,569.911 216.156,571.948 C205.251,574.711 194.044,576 183.496,576 C110.435,576 50.996,516.561 50.996,443.5 C50.996,397.784 74.81,355.528 112.915,331.444 C98.978,326.34 91.204,323.022 84.558,314.723 Z M183.496,399.5 C207.757,399.5 227.496,419.238 227.496,443.5 C227.496,467.762 207.758,487.5 183.496,487.5 C159.234,487.5 139.496,467.762 139.496,443.5 C139.496,419.238 159.234,399.5 183.496,399.5 Z M183.496,414.5 C167.506,414.5 154.496,427.51 154.496,443.5 C154.496,459.49 167.506,472.5 183.496,472.5 C199.486,472.5 212.496,459.49 212.496,443.5 C212.496,427.51 199.486,414.5 183.496,414.5 Z M275.75,246.58 L203.606,275.108 C190.726,280.201 176.239,280.188 163.39,275.108 C161.525,274.371 133.913,263.453 91.247,246.582 L91.247,246.582 L91.247,291.169 C91.247,299.985 96.391,308.048 104.353,311.711 C153.557,334.34 211.747,335.117 262.642,311.711 C270.603,308.05 275.748,299.987 275.748,291.17 L275.748,291.17 L275.75,291.17 L275.75,246.58 Z M194.306,292.597 C197.026,289.474 201.765,289.148 204.886,291.869 C208.01,294.591 208.336,299.328 205.614,302.451 C193.923,315.868 173.082,315.882 161.378,302.451 C158.657,299.328 158.983,294.591 162.106,291.869 C165.228,289.149 169.966,289.474 172.687,292.597 C178.406,299.161 188.583,299.166 194.306,292.597 Z M131.047,278.381 C135.19,278.381 138.547,281.739 138.547,285.881 L138.547,285.881 L138.547,297.881 C138.547,302.024 135.19,305.381 131.047,305.381 C126.904,305.381 123.547,302.024 123.547,297.881 L123.547,297.881 L123.547,285.881 C123.547,281.739 126.904,278.381 131.047,278.381 Z M235.944,278.381 C240.087,278.381 243.444,281.739 243.444,285.881 L243.444,285.881 L243.444,297.881 C243.444,302.024 240.087,305.381 235.944,305.381 C231.802,305.381 228.444,302.023 228.444,297.881 L228.444,297.881 L228.444,285.881 C228.444,281.739 231.801,278.381 235.944,278.381 Z M27.544,263.641 C20.651,263.641 15.044,269.248 15.044,276.141 L15.044,276.141 L15.044,289.475 C15.044,296.368 20.651,301.975 27.544,301.975 C34.437,301.975 40.044,296.368 40.044,289.475 L40.044,289.475 L40.044,276.141 C40.044,269.248 34.437,263.641 27.544,263.641 Z M372.784333,138.765 C368.644333,138.765 365.287333,142.123 365.287333,146.265 C365.287333,150.407 368.643333,153.765 372.784333,153.765 C388.658333,153.765 401.573333,166.664 401.573333,182.519 C401.573333,186.661 404.929333,190.019 409.070333,190.019 C413.211333,190.019 416.567333,186.661 416.567333,182.519 C416.567333,166.664 429.482333,153.765 445.356333,153.765 C449.496333,153.765 452.853333,150.407 452.853333,146.265 C452.853333,142.123 449.497333,138.765 445.356333,138.765 C429.482333,138.765 416.567333,125.866 416.567333,110.011 C416.567333,105.869 413.211333,102.511 409.070333,102.511 C404.929333,102.511 401.573333,105.869 401.573333,110.011 C401.573333,125.866 388.659333,138.765 372.784333,138.765 L372.784333,138.765 Z M409.070333,134.471 C412.213333,139.112 416.225333,143.122 420.868333,146.265 C416.225333,149.408 412.213333,153.418 409.070333,158.059 C405.927333,153.418 401.915333,149.408 397.272333,146.265 C401.915333,143.123 405.927333,139.113 409.070333,134.471 Z M242.350333,51.254 C258.224333,51.254 271.139333,64.153 271.139333,80.008 C271.139333,84.15 274.495333,87.508 278.636333,87.508 C282.777333,87.508 286.133333,84.15 286.133333,80.008 C286.133333,64.153 299.048333,51.254 314.922333,51.254 C319.062333,51.254 322.419333,47.896 322.419333,43.754 C322.419333,39.612 319.063333,36.254 314.922333,36.254 C299.047333,36.254 286.133333,23.355 286.133333,7.5 C286.133333,3.358 282.777333,0 278.636333,0 C274.495333,0 271.139333,3.358 271.139333,7.5 C271.139333,23.355 258.224333,36.254 242.350333,36.254 C238.210333,36.254 234.853333,39.612 234.853333,43.754 C234.853333,47.896 238.210333,51.254 242.350333,51.254 L242.350333,51.254 Z M278.636333,31.959 C281.779333,36.601 285.791333,40.611 290.434333,43.753 C285.791333,46.896 281.779333,50.906 278.636333,55.547 C275.493333,50.905 271.481333,46.895 266.838333,43.753 C271.481333,40.611 275.493333,36.601 278.636333,31.959 Z" id="Shape"/>
        </g>
    </g>
</svg>