<?xml version="1.0" encoding="UTF-8"?>
<svg width="539px" height="621px" viewBox="0 0 539 621" version="1.1" xmlns="http://www.w3.org/2000/svg" xmlns:xlink="http://www.w3.org/1999/xlink">
    <!-- Generator: Sketch 63.1 (92452) - https://sketch.com -->
    <title>hexagon (2)</title>
    <desc>Created with Sketch.</desc>
    <defs>
        <linearGradient x1="44.8152721%" y1="-20.7824921%" x2="44.8152721%" y2="70.8792965%" id="linearGradient-1">
            <stop stop-color="#AF238F" offset="0%"/>
            <stop stop-color="#8924A1" offset="0%"/>
            <stop stop-color="#8724A2" offset="0%"/>
            <stop stop-color="#6F24AF" offset="72.3052154%"/>
            <stop stop-color="#5225BD" offset="100%"/>
        </linearGradient>
    </defs>
    <g id="Page-1" stroke="none" stroke-width="1" fill="none" fill-rule="evenodd">
        <g id="hexagon-(2)" fill="url(#linearGradient-1)" fill-rule="nonzero">
            <path d="M394.254,621 C473.783004,621 538.254,556.529004 538.254,477 C538.254,397.470996 473.783004,333 394.254,333 C314.724996,333 250.254,397.470996 250.254,477 C250.254,556.529004 314.724996,621 394.254,621 Z M422.587333,95 C433.880347,95 443.067333,104.186987 443.067333,115.48 C443.067333,126.773013 433.880347,135.96 422.587333,135.96 C411.29432,135.96 402.107333,126.773013 402.107333,115.48 C402.107333,104.186987 411.29432,95 422.587333,95 Z M454.952333,57.12 L457.809333,57.12 L457.809333,59.97 C457.809333,64.112 461.165333,67.47 465.306333,67.47 C469.447333,67.47 472.803333,64.112 472.803333,59.97 L472.803333,57.12 L475.660333,57.12 C479.800333,57.12 483.157333,53.762 483.157333,49.62 C483.157333,45.478 479.801333,42.12 475.660333,42.12 L472.803333,42.12 L472.803333,39.271 C472.803333,35.129 469.447333,31.771 465.306333,31.771 C461.165333,31.771 457.809333,35.129 457.809333,39.271 L457.809333,42.12 L454.952333,42.12 C450.812333,42.12 447.455333,45.478 447.455333,49.62 C447.455333,53.762 450.812333,57.12 454.952333,57.12 Z M17.149,154.347 C19.463,150.911 24.123,150.003 27.559,152.315 C30.995,154.628 31.904,159.289 29.591,162.725 C20.045,176.902 15,193.664 15,211.202 L15,211.202 L15,518.798 C15,520.817 15.067,522.85 15.198,524.838 C15.199,524.842 15.199,524.846 15.199,524.849 C18.203,570.355 56.42,606 102.205,606 C117.427,606 132.024,602.029 145.592,594.196 L145.592,594.196 L343.312,480.042 C346.897,477.971 351.486,479.199 353.557,482.787 C355.628,486.374 354.399,490.961 350.812,493.032 L350.812,493.032 L153.092,607.186 C137.437,616.223 119.841,621 102.205,621 C48.546,621 3.754,579.201 0.23,525.837 L0.23,525.837 C0.078,523.512 0,521.147 0,518.798 L0,518.798 L0,211.201 C0,190.668 5.93,171.008 17.149,154.347 Z M105.205,109 C122.841,109 140.437,113.777 156.092,122.815 L156.092,122.815 L422.478,276.613 C454.431,295.062 473.507,328.104 473.507,365.001 C473.507,401.898 454.431,434.939 422.478,453.387 L422.478,453.387 L379.792,478.032 C378.612,478.714 377.321,479.038 376.049,479.038 C373.457,479.038 370.936,477.693 369.547,475.287 C367.476,471.7 368.705,467.113 372.292,465.042 L372.292,465.042 L414.978,440.397 C442.235,424.661 458.507,396.475 458.507,365.001 C458.507,333.527 442.235,305.341 414.978,289.604 L414.978,289.604 L148.592,135.806 C135.024,127.972 120.426,124 105.205,124 C85.934,124 66.817,130.621 51.374,142.643 C48.106,145.189 43.393,144.601 40.849,141.332 C38.305,138.064 38.891,133.351 42.16,130.807 C60.223,116.744 82.613,109 105.205,109 Z M229.894,342.873 C232.615,339.75 237.352,339.425 240.476,342.146 C243.599,344.868 243.924,349.605 241.203,352.728 C235.415,359.37 227.051,363.179 218.255,363.179 C209.459,363.179 201.095,359.37 195.305,352.728 C192.584,349.605 192.909,344.868 196.032,342.146 C199.155,339.426 203.892,339.751 206.614,342.873 C209.553,346.245 213.795,348.179 218.254,348.179 C222.713,348.179 226.956,346.245 229.894,342.873 Z M152.66,328.374 C156.802,328.374 160.16,331.732 160.16,335.874 L160.16,335.874 L160.16,347.874 C160.16,352.016 156.802,355.374 152.66,355.374 C148.518,355.374 145.16,352.016 145.16,347.874 L145.16,347.874 L145.16,335.874 C145.16,331.732 148.518,328.374 152.66,328.374 Z M286.167,326.134 C297.97,326.134 307.573,335.737 307.573,347.54 C307.573,351.682 304.215,355.04 300.073,355.04 C295.931,355.04 292.573,351.682 292.573,347.54 C292.573,344.008 289.699,341.134 286.167,341.134 C282.635,341.134 279.761,344.008 279.761,347.54 C279.761,351.682 276.403,355.04 272.261,355.04 C268.119,355.04 264.761,351.682 264.761,347.54 C264.761,335.737 274.364,326.134 286.167,326.134 Z M458.038333,138.765 C453.898333,138.765 450.541333,142.123 450.541333,146.265 C450.541333,150.407 453.897333,153.765 458.038333,153.765 C473.912333,153.765 486.827333,166.664 486.827333,182.519 C486.827333,186.661 490.183333,190.019 494.324333,190.019 C498.465333,190.019 501.821333,186.661 501.821333,182.519 C501.821333,166.664 514.736333,153.765 530.610333,153.765 C534.750333,153.765 538.107333,150.407 538.107333,146.265 C538.107333,142.123 534.751333,138.765 530.610333,138.765 C514.736333,138.765 501.821333,125.866 501.821333,110.011 C501.821333,105.869 498.465333,102.511 494.324333,102.511 C490.183333,102.511 486.827333,105.869 486.827333,110.011 C486.827333,125.866 473.913333,138.765 458.038333,138.765 L458.038333,138.765 Z M494.324333,134.471 C497.467333,139.112 501.479333,143.122 506.122333,146.265 C501.479333,149.408 497.467333,153.418 494.324333,158.059 C491.181333,153.418 487.169333,149.408 482.526333,146.265 C487.169333,143.123 491.181333,139.113 494.324333,134.471 Z M327.604333,51.254 C343.478333,51.254 356.393333,64.153 356.393333,80.008 C356.393333,84.15 359.749333,87.508 363.890333,87.508 C368.031333,87.508 371.387333,84.15 371.387333,80.008 C371.387333,64.153 384.302333,51.254 400.176333,51.254 C404.316333,51.254 407.673333,47.896 407.673333,43.754 C407.673333,39.612 404.317333,36.254 400.176333,36.254 C384.301333,36.254 371.387333,23.355 371.387333,7.5 C371.387333,3.358 368.031333,0 363.890333,0 C359.749333,0 356.393333,3.358 356.393333,7.5 C356.393333,23.355 343.478333,36.254 327.604333,36.254 C323.464333,36.254 320.107333,39.612 320.107333,43.754 C320.107333,47.896 323.464333,51.254 327.604333,51.254 L327.604333,51.254 Z M363.890333,31.959 C367.033333,36.601 371.045333,40.611 375.688333,43.753 C371.045333,46.896 367.033333,50.906 363.890333,55.547 C360.747333,50.905 356.735333,46.895 352.092333,43.753 C356.735333,40.611 360.747333,36.601 363.890333,31.959 Z" id="Shape"/>
        </g>
    </g>
</svg>